<?xml version="1.0" encoding="iso-8859-1"?>
<!-- Generator: Adobe Illustrator 16.0.0, SVG Export Plug-In . SVG Version: 6.00 Build 0)  -->
<!DOCTYPE svg PUBLIC "-//W3C//DTD SVG 1.1//EN" "http://www.w3.org/Graphics/SVG/1.1/DTD/svg11.dtd">
<svg xmlns="http://www.w3.org/2000/svg" xmlns:xlink="http://www.w3.org/1999/xlink" version="1.1" id="Capa_1" x="0px" y="0px" width="512px" height="512px" viewBox="0 0 612 612" style="enable-background:new 0 0 612 612;" xml:space="preserve">
<g>
	<path d="M306,0C137.004,0,0,137.004,0,306c0,168.995,137.004,306,306,306c168.995,0,306-137.005,306-306   C612,137.004,474.995,0,306,0z M334.152,398.662c-22.616,0-43.897-12.49-51.213-26.678c0,0-12.157,49.294-14.744,58.808   c-4.34,16.079-12.713,32.131-20.475,44.844c-11.071,14.465-23.84,3.728-25.37-9.459c-0.5-14.688,0.028-32.074,3.672-47.902   c4.034-17.358,26.956-116.586,26.956-116.586s-6.704-13.659-6.704-33.855c0-31.713,17.999-55.386,40.42-55.386   c19.055,0,28.263,14.633,28.263,32.13c0,19.556-12.212,48.821-18.499,75.916c-5.258,22.7,11.155,41.199,33.076,41.199   c39.696,0,66.458-52.076,66.458-113.749c0-46.901-30.935-81.98-87.21-81.98c-63.565,0-103.178,48.403-103.178,102.454   c0,18.638,5.369,31.796,13.826,41.95c3.867,4.674,4.423,6.565,3.004,11.935c-1.001,3.95-3.31,13.408-4.256,17.163   c-1.391,5.425-5.703,7.345-10.488,5.342c-29.292-12.213-42.923-44.955-42.923-81.73c0-60.783,50.212-133.667,149.773-133.667   c80.005,0,132.665,59.114,132.665,122.567C447.232,335.96,401.527,398.662,334.152,398.662z" fill="#404040"/>
</g>
<g>
</g>
<g>
</g>
<g>
</g>
<g>
</g>
<g>
</g>
<g>
</g>
<g>
</g>
<g>
</g>
<g>
</g>
<g>
</g>
<g>
</g>
<g>
</g>
<g>
</g>
<g>
</g>
<g>
</g>
</svg>
